<?xml version="1.0" encoding="utf-8"?>
<!-- Generator: Adobe Illustrator 16.0.0, SVG Export Plug-In . SVG Version: 6.00 Build 0)  -->
<!DOCTYPE svg PUBLIC "-//W3C//DTD SVG 1.1//EN" "http://www.w3.org/Graphics/SVG/1.1/DTD/svg11.dtd">
<svg version="1.1" id="Layer_1" xmlns="http://www.w3.org/2000/svg" xmlns:xlink="http://www.w3.org/1999/xlink" x="0px" y="0px"
	 width="1656px" height="1656px" viewBox="0 0 1656 1656" enable-background="new 0 0 1656 1656" xml:space="preserve">
<g>
	<g>
		<path fill="#FFFFFF" d="M1254.17,652.221h1.574V535.133c0-38.74-31.51-70.254-70.252-70.254h-93.086v-80.747
			c0-12.943-10.475-23.418-23.418-23.418H576.634c-12.942,0-23.417,10.475-23.417,23.418v83.079
			c-53.379,10.886-93.669,58.179-93.669,114.756v215.131c-17.451,10.862-33.788,23.789-48.685,38.686
			c-51.05,51.051-79.165,118.925-79.165,191.121s28.115,140.07,79.165,191.121c51.05,51.05,118.925,79.164,191.121,79.164
			s140.07-28.114,191.121-79.164c15.445-15.445,28.774-32.438,39.877-50.616h421.188c38.732,0,70.252-31.514,70.252-70.253V722.473
			C1324.422,683.732,1292.902,652.221,1254.17,652.221z M600.051,407.549h445.521V558.55H600.051V407.549z M553.217,515.738v66.229
			c0,12.943,10.475,23.418,47.42,23.418h544.02c0,0,17.417-10.475,17.417-23.418c0-12.944-10.475-23.417-23.416-23.417h-46.252
			v-46.837h93.086c12.943,0,23.416,10.475,23.416,23.42v117.088H576.634c-38.742,0-70.252-31.514-70.252-70.254
			C506.382,551.414,525.956,525.39,553.217,515.738z M761.285,1186.205c-42.551,42.551-99.125,65.984-159.301,65.984
			s-116.75-23.434-159.301-65.984c-42.551-42.551-65.985-99.125-65.985-159.301s23.434-116.75,65.985-159.301
			c42.551-42.551,99.125-65.984,159.301-65.984s116.75,23.434,159.301,65.984s65.984,99.125,65.984,159.301
			S803.836,1143.654,761.285,1186.205z M1277.586,1097.156c0,12.944-10.475,23.417-23.416,23.417H855.652
			c10.909-29.592,16.617-61.189,16.617-93.669c0-72.196-28.114-140.07-79.165-191.121c-51.05-51.05-118.925-79.164-191.121-79.164
			c-33.188,0-65.456,5.957-95.602,17.335v-98.363c19.573,14.774,43.954,23.465,70.252,23.465h677.536
			c12.941,0,23.416,10.475,23.416,23.417V1097.156z"/>
		<path fill="#FFFFFF" d="M642.276,902.918c2.71-1.836,4.356-4.884,4.356-8.174v-45.812c0-8.032-9.095-12.676-15.627-7.982
			l-111.021,80.352c-2.564,1.837-4.063,4.839-4.063,7.983v40.152c0,3.931,2.19,7.066,5.194,8.679
			c-0.736-0.391-1.426-0.867-2.049-1.424c0.386,0.386,0.773,0.726,1.208,1.016l73.963,53.531l-5.995-4.333l-68.258,49.438
			c-2.564,1.839-4.063,4.789-4.063,7.983v40.199c0,3.641,1.887,6.574,4.551,8.267c0.267,0.222,0.5,0.409,0.772,0.636l109.714,79.432
			c6.53,4.692,15.625,0.049,15.625-7.981v-45.811c0.05-3.292-1.597-6.389-4.307-8.225l-69.018-46.4l68.147-45.852
			c-2.729,1.383-6.074,1.602-9.061,0.055c6.357,3.195,14.238-1.336,14.238-8.812v-45.813c0.05-3.286-1.597-6.336-4.307-8.171
			l-69.078-46.442L642.276,902.918z"/>
	</g>
	<path fill="#FFFFFF" d="M1192.342,1071.777h-87.336c-12.943,0-23.418-10.475-23.418-23.418c0-12.945,10.475-23.416,23.418-23.416
		h87.336c12.951,0,23.416,10.471,23.416,23.416C1215.758,1061.303,1205.293,1071.777,1192.342,1071.777z"/>
</g>
</svg>
