<?xml version="1.0" encoding="utf-8"?>
<!-- Generator: Adobe Illustrator 16.0.0, SVG Export Plug-In . SVG Version: 6.00 Build 0)  -->
<!DOCTYPE svg PUBLIC "-//W3C//DTD SVG 1.1//EN" "http://www.w3.org/Graphics/SVG/1.1/DTD/svg11.dtd">
<svg version="1.1" id="Layer_1" xmlns="http://www.w3.org/2000/svg" xmlns:xlink="http://www.w3.org/1999/xlink" x="0px" y="0px"
	 width="1656px" height="1656px" viewBox="0 0 1656 1656" enable-background="new 0 0 1656 1656" xml:space="preserve">
<g>
	<g>
		<path fill="#FDFDFE" d="M1177.999,1272.843H444.581c-78.958,0-143.202-64.243-143.202-143.202v-601.37
			c0-78.965,64.243-143.209,143.202-143.209h733.418c78.959,0,143.201,64.244,143.201,143.209v109.202
			c0,26.466-21.186,48.051-47.635,48.554c-4.339,0.087-8.309,0.072-12.351,0.032c-1.741-0.008-3.489-0.017-5.303-0.017h-165.018
			c-15.649,0-28.872,13.221-28.872,28.871v228.085c0,15.65,13.223,28.871,28.872,28.871h165.018c2.035,0,4.05,0.009,6.047,0.024
			c3.266,0.024,6.47,0.057,9.682-0.024c13.054-0.168,25.659,4.729,34.989,13.867c9.315,9.14,14.57,21.634,14.57,34.687v109.218
			C1321.2,1208.6,1256.958,1272.843,1177.999,1272.843z M444.581,482.186c-25.404,0-46.078,20.674-46.078,46.085v601.37
			c0,25.403,20.674,46.078,46.078,46.078h733.418c25.404,0,46.077-20.675,46.077-46.078v-60.647h-133.182
			c-69.468,0-125.994-56.526-125.994-125.995V714.913c0-69.476,56.526-126.002,125.994-126.002h133.182v-60.641
			c0-25.411-20.673-46.085-46.077-46.085H444.581z"/>
	</g>
	<g>
		<path fill="#FFFFFF" d="M1380.459,856.771c0,26.938-22.041,48.985-48.977,48.985h-154.736c-26.938,0-48.97-22.048-48.97-48.985
			V801.14c0-26.937,22.032-48.977,48.97-48.977h154.736c26.936,0,48.977,22.04,48.977,48.977V856.771z"/>
	</g>
	<path fill="#FFFFFF" d="M786.134,663.563v-57.325c0-14.34-11.671-25.995-26.025-25.995c-5.432,0-10.672,1.702-15.195,4.936
		l-138.87,100.511c-6.759,4.849-10.793,12.734-10.793,21.106v50.239c0,7.181,2.884,13.859,7.997,18.732l-0.032,0.032
		c1.062,1.062,2.132,1.966,3.259,2.748l69.66,50.407l-70.106,50.767c-6.743,4.842-10.777,12.725-10.777,21.089v50.304
		c0,8.596,4.178,16.496,11.216,21.345l138.432,100.296c4.474,3.219,9.714,4.912,15.146,4.912c14.355,0,26.035-11.663,26.035-25.994
		l-0.008-57.117c0.144-8.739-4.122-16.896-11.416-21.841l-69.523-46.74l68.429-46.037l-0.032-0.057
		c7.661-4.569,12.55-12.845,12.55-22.239l-0.008-57.11c0.144-8.708-4.122-16.823-11.416-21.777l-69.611-46.796l69.659-46.86
		C781.868,680.227,786.134,672.19,786.134,663.563z"/>
</g>
</svg>
