<?xml version="1.0" encoding="utf-8"?>
<!-- Generator: Adobe Illustrator 16.0.0, SVG Export Plug-In . SVG Version: 6.00 Build 0)  -->
<!DOCTYPE svg PUBLIC "-//W3C//DTD SVG 1.1//EN" "http://www.w3.org/Graphics/SVG/1.1/DTD/svg11.dtd">
<svg version="1.1" id="Layer_1" xmlns="http://www.w3.org/2000/svg" xmlns:xlink="http://www.w3.org/1999/xlink" x="0px" y="0px"
	 width="35px" height="35px" viewBox="0 0 24 24" enable-background="new 0 0 24 24" xml:space="preserve">
<g color="">
	<g>
		<path fill="currentColor" d="M19.174,21.112H4.554c-1.574,0-2.855-1.281-2.855-2.854V6.27c0-1.574,1.281-2.855,2.855-2.855h14.62
			c1.575,0,2.854,1.281,2.854,2.855v2.177c0,0.527-0.422,0.957-0.95,0.967c-0.086,0.002-0.164,0.001-0.245,0.001
			c-0.035,0-0.068,0-0.106,0h-3.288c-0.313,0-0.577,0.263-0.577,0.575v4.547c0,0.312,0.264,0.575,0.577,0.575h3.288
			c0.041,0,0.081,0,0.121,0.001c0.065,0,0.129,0.002,0.192-0.001c0.262-0.003,0.512,0.095,0.699,0.277
			c0.185,0.183,0.289,0.43,0.289,0.69v2.178C22.028,19.831,20.749,21.112,19.174,21.112z M4.554,5.351
			c-0.507,0-0.919,0.413-0.919,0.919v11.988c0,0.506,0.412,0.917,0.919,0.917h14.62c0.506,0,0.92-0.411,0.92-0.917v-1.209h-2.655
			c-1.385,0-2.513-1.127-2.513-2.512V9.99c0-1.385,1.128-2.511,2.513-2.511h2.655V6.27c0-0.507-0.414-0.919-0.92-0.919H4.554z"/>
	</g>
	<g>
		<path fill="currentColor" d="M23.21,12.818c0,0.537-0.438,0.976-0.977,0.976h-3.085c-0.536,0-0.975-0.438-0.975-0.976v-1.109
			c0-0.537,0.438-0.976,0.975-0.976h3.085c0.538,0,0.977,0.439,0.977,0.976V12.818z"/>
	</g>
	<path fill="currentColor" d="M11.362,8.967V7.824c0-0.286-0.232-0.518-0.518-0.518c-0.11,0-0.213,0.033-0.304,0.098L7.773,9.407
		C7.638,9.505,7.559,9.662,7.559,9.828v1.002c0,0.144,0.057,0.276,0.158,0.373l-0.001,0.001c0.022,0.021,0.044,0.039,0.066,0.055
		l1.388,1.004l-1.397,1.012c-0.134,0.098-0.213,0.254-0.213,0.421v1.003c0,0.171,0.081,0.33,0.223,0.426l2.758,1.998
		c0.09,0.064,0.193,0.099,0.304,0.099c0.285,0,0.518-0.232,0.518-0.52v-1.137c0.002-0.175-0.082-0.337-0.228-0.437l-1.386-0.931
		l1.363-0.918l-0.001-0.001c0.154-0.092,0.251-0.257,0.251-0.443v-1.139c0.002-0.173-0.082-0.335-0.228-0.434L9.745,10.33
		l1.39-0.934C11.277,9.299,11.362,9.139,11.362,8.967z"/>
</g>
</svg>
